<svg width="135" height="136" viewBox="0 0 135 136" fill="none" xmlns="http://www.w3.org/2000/svg">
<path d="M129.903 73.7517C127.56 73.7517 125.66 75.6521 125.66 77.9956V115.644C125.66 122.08 120.517 127.315 114.196 127.315H19.9511C13.6303 127.315 8.48765 122.08 8.48765 115.644V20.1582C8.48765 13.7228 13.6303 8.48765 19.9511 8.48765H61.7527C64.0962 8.48765 65.9966 6.58726 65.9966 4.24382C65.9966 1.90038 64.0962 0 61.7527 0H19.9511C8.95023 0 0 9.04274 0 20.1582V115.644C0 126.76 8.95023 135.802 19.9511 135.802H114.196C125.197 135.802 134.147 126.76 134.147 115.644V77.9956C134.147 75.6521 132.247 73.7517 129.903 73.7517Z" fill="#F69739"/>
<path d="M61.8554 39.9785C61.8554 42.322 63.7558 44.2224 66.0993 44.2224H92.7106V71.2402C92.7106 73.5837 94.611 75.484 96.9544 75.484C99.2979 75.484 101.198 73.5837 101.198 71.2402V44.2224H127.81C130.153 44.2224 132.053 42.322 132.053 39.9785C132.053 37.6351 130.153 35.7347 127.81 35.7347H101.198V8.71766C101.198 6.37422 99.2979 4.47384 96.9544 4.47384C94.611 4.47384 92.7106 6.37422 92.7106 8.71766V35.7355H66.0993C63.7558 35.7355 61.8554 37.6351 61.8554 39.9785Z" fill="#F69739"/>
</svg>
