<svg width="85" height="80" viewBox="0 0 85 80" fill="none" xmlns="http://www.w3.org/2000/svg">
<g clip-path="url(#clip0_202_29)">
<path fill-rule="evenodd" clip-rule="evenodd" d="M5.33533 0H34.6182C37.551 0 39.9535 2.408 39.9535 5.35543V74.6481C39.9535 77.592 37.5545 80.0035 34.6182 80.0035H5.33533C2.40248 80.0035 0 77.5955 0 74.6481V5.35543C0 2.408 2.39897 0 5.33533 0Z" fill="#F3EDDE"/>
<path fill-rule="evenodd" clip-rule="evenodd" d="M50.0025 0H63.6622C75.3971 0 85 9.63906 85 21.4182V32.2665C85 35.0024 82.7696 37.2377 80.0475 37.2377H50.0025C47.2768 37.2377 45.05 34.9989 45.05 32.2665V4.97113C45.05 2.23525 47.2804 0 50.0025 0Z" fill="#F69739"/>
<path fill-rule="evenodd" clip-rule="evenodd" d="M50.0025 42.5579H80.0475C82.7731 42.5579 85 44.7966 85 47.529V58.3773C85 70.1565 75.3971 79.7955 63.6622 79.7955H50.0025C47.2768 79.7955 45.05 77.5568 45.05 74.8244V47.529C45.05 44.7931 47.2804 42.5579 50.0025 42.5579Z" fill="#F69739"/>
</g>
<defs>
<clipPath id="clip0_202_29">
<rect width="85" height="80" fill="white"/>
</clipPath>
</defs>
</svg>
