<svg width="22" height="22" viewBox="0 0 22 22" fill="none" xmlns="http://www.w3.org/2000/svg">
<g clip-path="url(#clip0_202_102)">
<path d="M5.26685 0H0.877809C0.393258 0 0 0.393258 0 0.877809V5.26685C0 5.7514 0.393258 6.14466 0.877809 6.14466H5.26685C5.7514 6.14466 6.14466 5.7514 6.14466 5.26685V0.877809C6.14466 0.393258 5.7514 0 5.26685 0Z" fill="#F3EDDE"/>
<path d="M5.26685 7.46136H0.877809C0.393258 7.46136 0 7.85462 0 8.33917V12.7282C0 13.2128 0.393258 13.606 0.877809 13.606H5.26685C5.7514 13.606 6.14466 13.2128 6.14466 12.7282V8.33917C6.14466 7.85462 5.7514 7.46136 5.26685 7.46136Z" fill="#F3EDDE"/>
<path d="M13.6061 12.7282V8.33917C13.6061 7.85462 13.2128 7.46136 12.7283 7.46136H8.33923C7.85468 7.46136 7.46143 7.85462 7.46143 8.33917V12.7282C7.46143 13.2128 7.85468 13.606 8.33923 13.606H12.7283C13.2128 13.606 13.6061 13.2128 13.6061 12.7282Z" fill="#F3EDDE"/>
<path d="M13.6061 5.26685V0.877809C13.6061 0.393258 13.2128 0 12.7283 0H8.33923C7.85468 0 7.46143 0.393258 7.46143 0.877809V5.26685C7.46143 5.7514 7.85468 6.14466 8.33923 6.14466H12.7283C13.2128 6.14466 13.6061 5.7514 13.6061 5.26685Z" fill="#F3EDDE"/>
<path d="M20.1897 0H15.8007C15.3161 0 14.9229 0.393258 14.9229 0.877809V5.26685C14.9229 5.7514 15.3161 6.14466 15.8007 6.14466H20.1897C20.6743 6.14466 21.0675 5.7514 21.0675 5.26685V0.877809C21.0675 0.393258 20.6743 0 20.1897 0Z" fill="#F3EDDE"/>
<path d="M15.8007 13.606H20.1897C20.6743 13.606 21.0675 13.2128 21.0675 12.7282V8.33917C21.0675 7.85462 20.6743 7.46136 20.1897 7.46136H15.8007C15.3161 7.46136 14.9229 7.85462 14.9229 8.33917V12.7282C14.9229 13.2128 15.3161 13.606 15.8007 13.606Z" fill="#F3EDDE"/>
<path d="M15.8007 21.0674H20.1897C20.6743 21.0674 21.0675 20.6741 21.0675 20.1896V15.8005C21.0675 15.316 20.6743 14.9227 20.1897 14.9227H15.8007C15.3161 14.9227 14.9229 15.316 14.9229 15.8005V20.1896C14.9229 20.6741 15.3161 21.0674 15.8007 21.0674Z" fill="#F3EDDE"/>
<path d="M0 15.8005V20.1896C0 20.6741 0.393258 21.0674 0.877809 21.0674H5.26685C5.7514 21.0674 6.14466 20.6741 6.14466 20.1896V15.8005C6.14466 15.316 5.7514 14.9227 5.26685 14.9227H0.877809C0.393258 14.9227 0 15.316 0 15.8005Z" fill="#F3EDDE"/>
<path d="M7.46143 15.8005V20.1896C7.46143 20.6741 7.85468 21.0674 8.33923 21.0674H12.7283C13.2128 21.0674 13.6061 20.6741 13.6061 20.1896V15.8005C13.6061 15.316 13.2128 14.9227 12.7283 14.9227H8.33923C7.85468 14.9227 7.46143 15.316 7.46143 15.8005Z" fill="#F3EDDE"/>
</g>
<defs>
<clipPath id="clip0_202_102">
<rect width="21.0674" height="21.0674" fill="white"/>
</clipPath>
</defs>
</svg>
