<svg width="22" height="22" viewBox="0 0 22 22" fill="none" xmlns="http://www.w3.org/2000/svg">
<g clip-path="url(#clip0_202_112)">
<path d="M19.128 15.2053H7.22821C6.15888 15.2053 5.28882 16.0753 5.28882 17.1447C5.28882 18.214 6.15888 19.0841 7.22821 19.0841H19.128C20.1974 19.0841 21.0674 18.214 21.0674 17.1447C21.0674 16.0753 20.1974 15.2053 19.128 15.2053Z" fill="#F3EDDE" fill-opacity="0.4"/>
<path d="M19.128 8.59424H7.22821C6.15888 8.59424 5.28882 9.4643 5.28882 10.5337C5.28882 11.6031 6.15888 12.4731 7.22821 12.4731H19.128C20.1974 12.4731 21.0674 11.6031 21.0674 10.5337C21.0674 9.4643 20.1974 8.59424 19.128 8.59424Z" fill="#F3EDDE" fill-opacity="0.4"/>
<path d="M7.22821 5.86211H19.128C20.1974 5.86211 21.0674 4.99205 21.0674 3.92267C21.0674 2.85329 20.1974 1.98328 19.128 1.98328H7.22821C6.15888 1.98328 5.28882 2.85329 5.28882 3.92267C5.28882 4.99205 6.15888 5.86211 7.22821 5.86211Z" fill="#F3EDDE" fill-opacity="0.4"/>
<path d="M1.93944 1.98328C0.870059 1.98328 0 2.85329 0 3.92267C0 4.99205 0.870059 5.86211 1.93944 5.86211C3.00881 5.86211 3.87879 4.99205 3.87879 3.92267C3.87879 2.85329 3.00881 1.98328 1.93944 1.98328Z" fill="#F3EDDE" fill-opacity="0.4"/>
<path d="M1.93944 8.59424C0.870059 8.59424 0 9.4643 0 10.5337C0 11.6031 0.870059 12.4731 1.93944 12.4731C3.00881 12.4731 3.87879 11.6031 3.87879 10.5337C3.87879 9.4643 3.00881 8.59424 1.93944 8.59424Z" fill="#F3EDDE" fill-opacity="0.4"/>
<path d="M1.93944 15.2053C0.870059 15.2053 0 16.0753 0 17.1447C0 18.214 0.870059 19.0841 1.93944 19.0841C3.00881 19.0841 3.87879 18.214 3.87879 17.1447C3.87879 16.0753 3.00881 15.2053 1.93944 15.2053Z" fill="#F3EDDE" fill-opacity="0.4"/>
</g>
<defs>
<clipPath id="clip0_202_112">
<rect width="21.0674" height="21.0674" fill="white"/>
</clipPath>
</defs>
</svg>
