<svg width="40" height="40" viewBox="0 0 40 40" fill="none" xmlns="http://www.w3.org/2000/svg">
<path d="M11.25 10V3.75L3.75 11.25H10C10.3315 11.25 10.6495 11.1183 10.8839 10.8839C11.1183 10.6495 11.25 10.3315 11.25 10Z" fill="#F69739"/>
<path d="M5 37.5H23.9773C22.1244 36.5007 20.6423 34.9317 19.75 33.025C19.0826 31.6994 18.7398 30.2341 18.75 28.75C18.7496 27.4367 19.008 26.1362 19.5105 24.9227C20.0129 23.7093 20.7495 22.6068 21.6781 21.6781C22.6068 20.7495 23.7093 20.0129 24.9227 19.5105C26.1362 19.008 27.4367 18.7496 28.75 18.75C30.0404 18.762 31.3154 19.032 32.5 19.544V5C32.4981 4.33755 32.2341 3.70277 31.7657 3.23435C31.2972 2.76592 30.6625 2.50191 30 2.5H13.75V10C13.7489 10.9942 13.3534 11.9474 12.6504 12.6504C11.9474 13.3534 10.9942 13.7489 10 13.75H2.5V35C2.50191 35.6625 2.76592 36.2972 3.23435 36.7657C3.70277 37.2341 4.33755 37.4981 5 37.5Z" fill="#F69739"/>
<path d="M31.975 22C30.974 21.4998 29.869 21.2428 28.75 21.25C26.7626 21.2558 24.8584 22.0479 23.4531 23.4531C22.0478 24.8584 21.2558 26.7627 21.25 28.75C21.237 29.8537 21.4945 30.9438 22 31.925C22.5956 33.2145 23.5475 34.3068 24.7435 35.0731C25.9394 35.8394 27.3296 36.2478 28.75 36.25C29.4694 36.2574 30.1858 36.1563 30.875 35.95L31.025 35.875C32.4573 35.424 33.7203 34.5516 34.6493 33.3719C35.5783 32.1921 36.1301 30.7597 36.2327 29.2616C36.3353 27.7634 35.9839 26.2692 35.2243 24.9738C34.4648 23.6784 33.3324 22.6421 31.975 22ZM32.5 30H30V32.5C30 32.8315 29.8683 33.1495 29.6339 33.3839C29.3994 33.6183 29.0815 33.75 28.75 33.75C28.4185 33.75 28.1005 33.6183 27.8661 33.3839C27.6317 33.1495 27.5 32.8315 27.5 32.5V30H25C24.6685 30 24.3505 29.8683 24.1161 29.6339C23.8817 29.3995 23.75 29.0815 23.75 28.75C23.75 28.4185 23.8817 28.1006 24.1161 27.8661C24.3505 27.6317 24.6685 27.5 25 27.5H27.5V25C27.5 24.6685 27.6317 24.3506 27.8661 24.1161C28.1005 23.8817 28.4185 23.75 28.75 23.75C29.0815 23.75 29.3994 23.8817 29.6339 24.1161C29.8683 24.3506 30 24.6685 30 25V27.5H32.5C32.8315 27.5 33.1494 27.6317 33.3839 27.8661C33.6183 28.1006 33.75 28.4185 33.75 28.75C33.75 29.0815 33.6183 29.3995 33.3839 29.6339C33.1494 29.8683 32.8315 30 32.5 30Z" fill="#F69739"/>
</svg>
