<svg width="25" height="25" viewBox="0 0 25 25" fill="none" xmlns="http://www.w3.org/2000/svg">
<path d="M5.20842 23.9583C4.10335 23.9583 3.04354 23.5193 2.26214 22.7379C1.48073 21.9565 1.04175 20.8967 1.04175 19.7916V5.20829C1.04175 4.10322 1.48073 3.04342 2.26214 2.26201C3.04354 1.48061 4.10335 1.04163 5.20842 1.04163H11.4584C11.7347 1.04163 11.9996 1.15137 12.195 1.34672C12.3903 1.54207 12.5001 1.80703 12.5001 2.08329C12.5001 2.35956 12.3903 2.62451 12.195 2.81986C11.9996 3.01521 11.7347 3.12496 11.4584 3.12496H5.20842C4.65588 3.12496 4.12598 3.34445 3.73528 3.73515C3.34457 4.12585 3.12508 4.65576 3.12508 5.20829V19.7916C3.12508 20.3442 3.34457 20.8741 3.73528 21.2648C4.12598 21.6555 4.65588 21.875 5.20842 21.875H19.7917C20.3443 21.875 20.8742 21.6555 21.2649 21.2648C21.6556 20.8741 21.8751 20.3442 21.8751 19.7916V13.5416C21.8751 13.2654 21.9848 13.0004 22.1802 12.8051C22.3755 12.6097 22.6405 12.5 22.9167 12.5C23.193 12.5 23.458 12.6097 23.6533 12.8051C23.8487 13.0004 23.9584 13.2654 23.9584 13.5416V19.7916C23.9584 20.8967 23.5194 21.9565 22.738 22.7379C21.9566 23.5193 20.8968 23.9583 19.7917 23.9583H5.20842Z" fill="#F3EDDE"/>
<path d="M19.7918 23.6978H5.2085C4.17292 23.6965 3.18015 23.2845 2.44788 22.5522C1.71562 21.8199 1.30362 20.8272 1.30225 19.7916V5.20825C1.30362 4.17267 1.71562 3.1799 2.44788 2.44764C3.18015 1.71537 4.17292 1.30338 5.2085 1.302H11.4585C11.6657 1.302 11.8644 1.38431 12.0109 1.53082C12.1574 1.67734 12.2397 1.87605 12.2397 2.08325C12.2397 2.29045 12.1574 2.48917 12.0109 2.63568C11.8644 2.78219 11.6657 2.8645 11.4585 2.8645H5.2085C4.58715 2.86533 3.99149 3.11252 3.55213 3.55188C3.11277 3.99124 2.86557 4.58691 2.86475 5.20825V19.7916C2.86557 20.4129 3.11277 21.0086 3.55213 21.448C3.99149 21.8873 4.58715 22.1345 5.2085 22.1353H19.7918C20.4132 22.1345 21.0088 21.8873 21.4482 21.448C21.8876 21.0086 22.1348 20.4129 22.1356 19.7916V13.5416C22.1356 13.3344 22.2179 13.1357 22.3644 12.9892C22.5109 12.8426 22.7096 12.7603 22.9168 12.7603C23.124 12.7603 23.3227 12.8426 23.4693 12.9892C23.6158 13.1357 23.6981 13.3344 23.6981 13.5416V19.7916C23.6967 20.8272 23.2847 21.8199 22.5524 22.5522C21.8202 23.2845 20.8274 23.6965 19.7918 23.6978Z" fill="#F3EDDE"/>
<path d="M23.4688 8.82288L16.1771 1.53121C16.0678 1.42209 15.9287 1.3478 15.7772 1.31771C15.6258 1.28762 15.4688 1.30309 15.3261 1.36217C15.1835 1.42124 15.0615 1.52127 14.9756 1.64962C14.8898 1.77797 14.8439 1.92888 14.8438 2.0833V5.49788C12.2941 5.698 9.91333 6.85135 8.17591 8.72815C6.43849 10.605 5.47191 13.0674 5.46875 15.625V16.6666C5.46856 16.8283 5.51856 16.9861 5.61184 17.1182C5.70513 17.2503 5.83712 17.3502 5.98958 17.4041C6.07333 17.4332 6.16136 17.448 6.25 17.4479C6.36716 17.4478 6.48282 17.4215 6.58846 17.3709C6.6941 17.3202 6.78704 17.2465 6.86042 17.1552L8.21458 15.4656C9.00841 14.4661 10.0161 13.6572 11.1637 13.0984C12.3113 12.5395 13.5695 12.245 14.8458 12.2364V15.625C14.8455 15.7745 14.8882 15.921 14.9687 16.047C15.0493 16.173 15.1643 16.2732 15.3002 16.3356C15.4361 16.3981 15.5871 16.4201 15.7351 16.3992C15.8832 16.3783 16.0221 16.3153 16.1354 16.2177L23.4271 9.96767C23.5088 9.89755 23.5751 9.81129 23.6219 9.71431C23.6687 9.61733 23.6949 9.51173 23.699 9.40413C23.7031 9.29656 23.6848 9.18931 23.6452 9.08923C23.6055 8.98914 23.5454 8.89843 23.4688 8.82288Z" fill="#F3EDDE"/>
</svg>
