<svg width="136" height="136" viewBox="0 0 136 136" fill="none" xmlns="http://www.w3.org/2000/svg">
<path d="M110.607 37.9782C109.152 29.3366 104.874 21.4502 98.3294 15.4654C91.0582 8.8094 81.6056 5.14581 71.7615 5.14581C64.1546 5.14581 56.7436 7.32718 50.3952 11.4382C45.1096 14.8501 40.7189 19.4645 37.6146 24.89C36.2723 24.6383 34.8739 24.4985 33.4756 24.4985C21.59 24.4985 11.9136 34.1748 11.9136 46.0605C11.9136 47.5986 12.0814 49.0808 12.3611 50.5351C4.67037 56.1283 0 65.1335 0 74.7259C0 82.4726 2.88053 89.9955 8.13819 95.9523C13.5357 102.049 20.6671 105.657 28.2739 106.076C28.3578 106.076 28.4137 106.076 28.4976 106.076H52.5486C54.6461 106.076 56.3241 104.398 56.3241 102.301C56.3241 100.203 54.6461 98.5252 52.5486 98.5252H28.6095C17.1713 97.826 7.55089 86.9472 7.55089 74.6979C7.55089 66.7835 11.8018 59.4004 18.6535 55.4012C20.2476 54.4783 20.9188 52.5487 20.3035 50.8147C19.7442 49.3046 19.4645 47.7105 19.4645 46.0045C19.4645 38.2859 25.7569 31.9934 33.4756 31.9934C35.1256 31.9934 36.7477 32.2731 38.2579 32.8324C40.1036 33.5036 42.1452 32.6646 42.9842 30.9028C48.2139 19.8001 59.5122 12.6408 71.7894 12.6408C88.2895 12.6408 101.909 25.0019 103.475 41.3901C103.643 43.0961 104.929 44.4664 106.607 44.7461C119.052 46.8715 128.449 58.3656 128.449 71.4818C128.449 85.3811 117.514 97.4625 104.035 98.4972H83.4234C81.3259 98.4972 79.6479 100.175 79.6479 102.273C79.6479 104.37 81.3259 106.048 83.4234 106.048H104.174C104.258 106.048 104.342 106.048 104.454 106.048C112.984 105.433 120.954 101.518 126.883 94.9735C132.784 88.4853 136 80.1514 136 71.4818C135.972 55.7927 125.261 41.8376 110.607 37.9782Z" fill="#F3EDDE"/>
<path d="M90.6665 78.3056C92.1488 76.8234 92.1488 74.4462 90.6665 72.964L70.6707 52.9681C69.9715 52.269 68.9927 51.8495 68.0139 51.8495C67.035 51.8495 66.0562 52.241 65.3571 52.9681L45.3612 72.964C43.879 74.4462 43.879 76.8234 45.3612 78.3056C46.0883 79.0327 47.0671 79.4242 48.018 79.4242C48.9688 79.4242 49.9476 79.0607 50.6748 78.3056L64.2384 64.7419V127.079C64.2384 129.176 65.9164 130.854 68.0139 130.854C70.1113 130.854 71.7893 129.176 71.7893 127.079V64.7419L85.353 78.3056C86.8072 79.7878 89.1843 79.7878 90.6665 78.3056Z" fill="#F3EDDE"/>
</svg>
